<svg width="328" height="500" viewBox="0 0 328 500" fill="none" xmlns="http://www.w3.org/2000/svg">
<path d="M327.1 0H0V500H327.1V0Z" fill="black"/>
<path d="M73.3001 78.0001C72.7001 77.1001 72.0001 76.3001 71.2001 75.6001C70.3001 74.9001 69.4001 74.4001 68.3001 74.0001C67.2001 73.6001 66.1001 73.4001 64.9001 73.4001C62.7001 73.4001 60.9001 73.8001 59.4001 74.7001C57.9001 75.5001 56.7001 76.7001 55.7001 78.1001C54.8001 79.5001 54.1001 81.1001 53.7001 82.9001C53.3001 84.7001 53.1001 86.5001 53.1001 88.5001C53.1001 90.3001 53.3001 92.1001 53.7001 93.9001C54.1001 95.6001 54.8001 97.2001 55.7001 98.6001C56.6001 100 57.9001 101.1 59.4001 101.9C60.9001 102.7 62.7001 103.2 64.9001 103.2C67.8001 103.2 70.1001 102.3 71.8001 100.5C73.5001 98.7001 74.5001 96.3001 74.8001 93.4001H84.1001C83.9001 96.1001 83.2001 98.6001 82.2001 100.8C81.2001 103 79.8001 104.9 78.2001 106.4C76.5001 107.9 74.6001 109.1 72.3001 109.9C70.1001 110.7 67.6001 111.1 64.9001 111.1C61.6001 111.1 58.5001 110.5 55.9001 109.4C53.2001 108.2 51.0001 106.6 49.1001 104.6C47.3001 102.6 45.9001 100.2 44.9001 97.4001C43.9001 94.7001 43.4001 91.7001 43.4001 88.5001C43.4001 85.2001 43.9001 82.2001 44.9001 79.4001C45.9001 76.6001 47.3001 74.2001 49.1001 72.1001C50.9001 70.0001 53.2001 68.4001 55.9001 67.2001C58.6001 66.0001 61.6001 65.4001 64.9001 65.4001C67.3001 65.4001 69.6001 65.7001 71.7001 66.4001C73.8001 67.1001 75.8001 68.1001 77.4001 69.4001C79.1001 70.7001 80.5001 72.4001 81.6001 74.3001C82.7001 76.3001 83.4001 78.5001 83.7001 81.0001H74.4001C74.2001 79.9001 73.9001 78.9001 73.3001 78.0001Z" fill="white"/>
<path d="M97.7001 102.4C99.0001 103.7 100.9 104.3 103.3 104.3C105.1 104.3 106.6 103.9 107.8 103C109.1 102.1 109.8 101.2 110.1 100.2H117.7C116.5 104 114.6 106.7 112.1 108.3C109.6 109.9 106.5 110.7 102.9 110.7C100.4 110.7 98.2001 110.3 96.2001 109.5C94.2001 108.7 92.5001 107.6 91.1001 106.1C89.7001 104.6 88.6001 102.9 87.9001 100.8C87.1001 98.8002 86.8001 96.5002 86.8001 94.1002C86.8001 91.7002 87.2001 89.5002 88.0001 87.5002C88.8001 85.5002 89.9001 83.7002 91.3001 82.2002C92.7001 80.7002 94.4001 79.5002 96.4001 78.7002C98.4001 77.8002 100.6 77.4002 103 77.4002C105.7 77.4002 108 77.9002 110 79.0002C112 80.0002 113.6 81.4002 114.9 83.2002C116.2 85.0002 117.1 87.0002 117.7 89.2002C118.3 91.4002 118.5 93.8002 118.3 96.2002H95.5001C95.7001 99.1002 96.4001 101.1 97.7001 102.4ZM107.6 85.8002C106.6 84.7002 105 84.1002 102.9 84.1002C101.5 84.1002 100.4 84.3002 99.4001 84.8002C98.5001 85.3002 97.8001 85.9002 97.2001 86.5002C96.7001 87.2002 96.3001 87.9002 96.0001 88.7002C95.8001 89.5002 95.6001 90.2002 95.6001 90.8002H109.7C109.3 88.6002 108.6 86.9002 107.6 85.8002Z" fill="white"/>
<path d="M130.6 78.4001V84.3001H130.7C131.1 83.3001 131.7 82.4001 132.3 81.6001C133 80.8001 133.8 80.1001 134.7 79.5001C135.6 78.9001 136.6 78.5001 137.6 78.1001C138.6 77.8001 139.7 77.6001 140.8 77.6001C141.4 77.6001 142 77.7001 142.7 77.9001V86.0001C142.3 85.9001 141.8 85.8001 141.2 85.8001C140.6 85.7001 140.1 85.7001 139.6 85.7001C138 85.7001 136.7 86.0001 135.6 86.5001C134.5 87.0001 133.6 87.8001 132.9 88.7001C132.2 89.6001 131.7 90.7001 131.5 91.9001C131.2 93.1001 131.1 94.4001 131.1 95.9001V110H122.4V78.4001H130.6Z" fill="white"/>
<path d="M165.9 78.4003V84.2003H159.5V99.9003C159.5 101.4 159.7 102.3 160.2 102.8C160.7 103.3 161.7 103.5 163.1 103.5C163.6 103.5 164.1 103.5 164.5 103.4C164.9 103.4 165.4 103.3 165.8 103.2V109.9C165.1 110 164.2 110.1 163.4 110.1C162.5 110.1 161.6 110.2 160.8 110.2C159.5 110.2 158.2 110.1 157 109.9C155.8 109.7 154.7 109.4 153.8 108.8C152.9 108.3 152.2 107.5 151.6 106.5C151.1 105.5 150.8 104.2 150.8 102.7V84.0003H145.5V78.2003H150.8V68.7003H159.5V78.2003H165.9V78.4003Z" fill="white"/>
<path d="M170.3 66.3H179V73.5H170.3V66.3ZM179 110H170.3V78.4H179V110Z" fill="white"/>
<path d="M182.6 84.2001V78.4001H187.8V76.0002C187.8 73.2002 188.7 70.9002 190.4 69.1002C192.2 67.3002 194.8 66.4001 198.4 66.4001C199.2 66.4001 199.9 66.4002 200.7 66.5002C201.5 66.6002 202.2 66.6001 203 66.7001V73.2001C202 73.1001 200.9 73.0002 199.8 73.0002C198.6 73.0002 197.8 73.3002 197.3 73.8002C196.8 74.3002 196.5 75.3002 196.5 76.6002V78.5002H202.5V84.3002H196.5V110H187.8V84.2001H182.6Z" fill="white"/>
<path d="M207.7 66.3H216.4V73.5H207.7V66.3ZM216.4 110H207.7V78.4H216.4V110Z" fill="white"/>
<path d="M230.1 102.4C231.4 103.7 233.3 104.3 235.7 104.3C237.5 104.3 239 103.9 240.2 103C241.5 102.1 242.2 101.2 242.5 100.2H250.1C248.9 104 247 106.7 244.5 108.3C242 109.9 238.9 110.7 235.3 110.7C232.8 110.7 230.6 110.3 228.6 109.5C226.6 108.7 224.9 107.6 223.5 106.1C222.1 104.6 221 102.9 220.3 100.8C219.5 98.8002 219.2 96.5002 219.2 94.1002C219.2 91.7002 219.6 89.5002 220.4 87.5002C221.2 85.5002 222.3 83.7002 223.7 82.2002C225.1 80.7002 226.8 79.5002 228.8 78.7002C230.8 77.8002 233 77.4002 235.4 77.4002C238.1 77.4002 240.4 77.9002 242.4 79.0002C244.4 80.0002 246 81.4002 247.3 83.2002C248.6 85.0002 249.5 87.0002 250.1 89.2002C250.7 91.4002 250.9 93.8002 250.7 96.2002H227.9C228.1 99.1002 228.8 101.1 230.1 102.4ZM239.9 85.8002C238.9 84.7002 237.3 84.1002 235.2 84.1002C233.8 84.1002 232.7 84.3002 231.7 84.8002C230.8 85.3002 230 85.9002 229.5 86.5002C228.9 87.2002 228.6 87.9002 228.3 88.7002C228.1 89.5002 227.9 90.2002 227.9 90.8002H242C241.7 88.6002 240.9 86.9002 239.9 85.8002Z" fill="white"/>
<path d="M277.1 105.9C276.1 107.6 274.7 108.8 273.1 109.6C271.4 110.4 269.6 110.7 267.5 110.7C265.1 110.7 263.1 110.2 261.3 109.3C259.5 108.4 258 107.1 256.9 105.6C255.7 104 254.9 102.2 254.3 100.2C253.7 98.2 253.4 96 253.4 93.8C253.4 91.7 253.7 89.6 254.3 87.7C254.9 85.7 255.8 84 256.9 82.5C258.1 81 259.5 79.8 261.3 78.9C263.1 78 265.1 77.5 267.4 77.5C269.3 77.5 271.1 77.9 272.7 78.7C274.4 79.5 275.7 80.7 276.7 82.2H276.8V66.3H285.5V110H277.2V106H277.1V105.9ZM276.7 90.3C276.5 89.1 276 88.0001 275.4 87.1001C274.8 86.2001 274 85.4 273.1 84.9C272.2 84.3 271 84 269.6 84C268.2 84 267 84.3 266 84.9C265 85.5 264.2 86.2 263.6 87.2C263 88.1 262.6 89.2 262.3 90.4C262 91.6 261.9 92.9 261.9 94.2C261.9 95.4 262 96.6 262.3 97.9C262.6 99.1 263.1 100.2 263.7 101.2C264.3 102.2 265.1 102.9 266.1 103.5C267.1 104.1 268.2 104.4 269.6 104.4C271 104.4 272.2 104.1 273.2 103.5C274.2 102.9 274.9 102.2 275.5 101.2C276.1 100.2 276.5 99.2 276.7 97.9C276.9 96.7 277.1 95.4001 277.1 94.1001C277.1 92.8001 277 91.5 276.7 90.3Z" fill="white"/>
<path d="M112.4 181H163C175.3 181 191.5 181 199.9 186.1C209.1 191.6 216.3 201.5 216.3 215.2C216.3 230 208.5 241.2 195.6 246.5V246.9C212.8 250.4 222.2 263.3 222.2 280.5C222.2 301 207.5 320.6 179.8 320.6H112.4V181ZM131 241H168.2C189.3 241 197.9 233.4 197.9 218.7C197.9 199.3 184.2 196.6 168.2 196.6H131V241ZM131 304.9H177.5C193.5 304.9 203.7 295.1 203.7 279.9C203.7 261.7 189 256.6 173.4 256.6H131V304.9Z" fill="white"/>
<path d="M269.7 250.8C269.7 309.4 222.2 356.9 163.5 356.9C104.9 356.9 57.4001 309.4 57.4001 250.8C57.4001 192.2 104.9 144.7 163.5 144.7C222.2 144.7 269.7 192.2 269.7 250.8ZM163.6 128.5C96.1001 128.5 41.3 183.2 41.3 250.8C41.3 318.3 96.0001 373.1 163.6 373.1C231.1 373.1 285.9 318.4 285.9 250.8C285.9 183.2 231.1 128.5 163.6 128.5Z" fill="white"/>
<path d="M63.9 399.4C63.5 396.3 60.5 394 57.1 394C51 394 48.7 399.2 48.7 404.6C48.7 409.7 51 414.9 57.1 414.9C61.3 414.9 63.6 412 64.1 408H70.7C70 415.7 64.7 420.6 57.1 420.6C47.5 420.6 41.9 413.5 41.9 404.5C41.9 395.3 47.5 388.2 57.1 388.2C63.9 388.2 69.6 392.2 70.4 399.3H63.9V399.4Z" fill="white"/>
<path d="M84.9 397C92 397 96.5 401.7 96.5 408.8C96.5 415.9 92 420.6 84.9 420.6C77.9 420.6 73.3 415.9 73.3 408.8C73.4 401.6 77.9 397 84.9 397ZM84.9 415.9C89.1 415.9 90.4 412.3 90.4 408.8C90.4 405.2 89.1 401.6 84.9 401.6C80.7 401.6 79.5 405.2 79.5 408.8C79.5 412.3 80.8 415.9 84.9 415.9Z" fill="white"/>
<path d="M100.1 397.6H105.9V401.8H106C107.1 399 110.2 397 113.1 397C113.5 397 114 397.1 114.4 397.2V402.9C113.8 402.8 112.9 402.7 112.2 402.7C107.7 402.7 106.1 405.9 106.1 409.9V420H100V397.6H100.1Z" fill="white"/>
<path d="M117.8 397.6H123.6V400.5H123.7C125.2 398.1 127.6 397 130.4 397C137.4 397 140.6 402.7 140.6 409C140.6 415 137.3 420.6 130.8 420.6C128.1 420.6 125.6 419.4 124.1 417.2H123.9V427.9H117.8V397.6ZM134.4 408.8C134.4 405.2 133 401.6 129 401.6C125 401.6 123.7 405.2 123.7 408.8C123.7 412.4 125.1 415.9 129.1 415.9C133.1 415.9 134.4 412.5 134.4 408.8Z" fill="white"/>
<path d="M155.1 397C162.2 397 166.7 401.7 166.7 408.8C166.7 415.9 162.1 420.6 155.1 420.6C148.1 420.6 143.5 415.9 143.5 408.8C143.5 401.6 148.1 397 155.1 397ZM155.1 415.9C159.3 415.9 160.6 412.3 160.6 408.8C160.6 405.2 159.3 401.6 155.1 401.6C150.9 401.6 149.7 405.2 149.7 408.8C149.7 412.3 150.9 415.9 155.1 415.9Z" fill="white"/>
<path d="M170.8 397.6H176.6V401.8H176.7C177.8 399 180.9 397 183.8 397C184.2 397 184.8 397.1 185.1 397.2V402.9C184.5 402.8 183.6 402.7 182.9 402.7C178.4 402.7 176.8 405.9 176.8 409.9V420H170.7V397.6H170.8Z" fill="white"/>
<path d="M187.4 404.5C187.8 398.7 192.9 397 197.9 397C202.4 397 207.7 398 207.7 403.4V415C207.7 417 207.9 419.1 208.5 420H202.3C202.1 419.3 201.9 418.6 201.9 417.8C200 419.8 197.1 420.6 194.4 420.6C190.2 420.6 186.8 418.5 186.8 413.9C186.8 408.8 190.6 407.6 194.4 407.1C198.2 406.5 201.7 406.7 201.7 404.2C201.7 401.6 199.9 401.2 197.7 401.2C195.4 401.2 193.8 402.1 193.6 404.6H187.4V404.5ZM201.6 409C200.6 409.9 198.4 410 196.5 410.3C194.6 410.7 192.9 411.3 192.9 413.6C192.9 415.9 194.7 416.5 196.7 416.5C201.5 416.5 201.7 412.7 201.7 411.4V409H201.6Z" fill="white"/>
<path d="M220.3 397.6H224.8V401.7H220.3V412.8C220.3 414.9 220.8 415.4 222.9 415.4C223.6 415.4 224.2 415.4 224.8 415.2V420C223.8 420.2 222.4 420.2 221.2 420.2C217.4 420.2 214.2 419.3 214.2 414.9V401.7H210.5V397.6H214.2V390.9H220.3V397.6Z" fill="white"/>
<path d="M234 394.1H227.9V389H234V394.1ZM227.9 397.6H234V420H227.9V397.6Z" fill="white"/>
<path d="M248.9 397C256 397 260.5 401.7 260.5 408.8C260.5 415.9 255.9 420.6 248.9 420.6C241.9 420.6 237.4 415.9 237.4 408.8C237.3 401.6 241.9 397 248.9 397ZM248.9 415.9C253.1 415.9 254.4 412.3 254.4 408.8C254.4 405.2 253.2 401.6 248.9 401.6C244.7 401.6 243.5 405.2 243.5 408.8C243.5 412.3 244.7 415.9 248.9 415.9Z" fill="white"/>
<path d="M264.4 397.6H270.2V400.7H270.3C271.9 398.2 274.5 397 277.1 397C283.6 397 285.3 400.7 285.3 406.2V420H279.2V407.4C279.2 403.7 278.1 401.9 275.3 401.9C272 401.9 270.5 403.8 270.5 408.3V420H264.4V397.6Z" fill="white"/>
<path d="M285.5 439H41.8001V454.6H285.5V439Z" fill="white"/>
<path d="M289 388.1H287.6V392H286.9V388.1H285.5V387.5H289.1V388.1H289ZM295 392H294.3V388.2L292.8 392H292.3L290.8 388.2V392H290V387.5H291.2L292.6 390.9L293.9 387.5H295.1V392H295Z" fill="white"/>
</svg>
