<?xml version="1.0" encoding="utf-8"?>
<!-- Generator: Adobe Illustrator 19.2.1, SVG Export Plug-In . SVG Version: 6.00 Build 0)  -->
<svg version="1.1" id="layer" xmlns="http://www.w3.org/2000/svg" xmlns:xlink="http://www.w3.org/1999/xlink" x="0px" y="0px"
	 viewBox="0 0 652 652" style="enable-background:new 0 0 652 652;" xml:space="preserve">
<style type="text/css">
	.st0{fill:#0093CB;}
	.st1{fill:#8DC21F;}
	.st2{fill:#888888;}
</style>
<g>
	<path class="st0" d="M41,551.6l-0.6,1.2c-1.3,2.6-5.6,8.7-15.2,8.7c-10,0-17.9-7.8-17.9-17.7c0-11,9.1-17.5,17.9-17.5
		c2.4,0,10.8,0.7,15.2,9.1l0.6,1.2h11.6l-1.3-3.1c-5.2-12.8-17-17.3-26.3-17.3c-15.7,0-28.4,12.5-28.4,27.8
		c0,15.5,12.5,27.7,28.4,27.7c11.7,0,20.5-5.6,26.2-16.7l1.7-3.3H41z"/>
	<path class="st0" d="M78,516.1c-4.1,0.3-8.2,1.1-11.5,3.9v-2.7H55.8v53.1h10.8v-30.8c0-3.2,1-6.2,2.9-8.6c1.8-2.2,5-3.6,8.9-3.9
		l2.1-0.1v-11.1L78,516.1z"/>
	<path class="st0" d="M125.1,517.4v4.9c-6-5.4-13.6-6.2-17-6.2c-17.8,0-28.4,14.1-28.4,27.6c0,15.6,12.5,27.8,28.4,27.8
		c3.4,0,10.8-0.8,17-6.2v5.1h10.7v-53.1H125.1z M108.1,526.2c9.7,0,17.4,7.8,17.4,17.7c0,9.9-7.6,17.6-17.4,17.6
		c-10.2,0-17.7-7.3-17.7-17.5C90.4,532.3,99.3,526.2,108.1,526.2"/>
	<path class="st0" d="M184.8,500.1v22.2c-6.5-5.6-14.3-6.2-16.9-6.2c-17.8,0-28.4,14.1-28.4,27.6c0,15.6,12.5,27.8,28.4,27.8
		c2.6,0,10.5-0.6,16.9-6.2v5.1h10.8v-70.3H184.8z M167.9,526.2c9.5,0,17.2,7.9,17.2,17.7c0,9.9-7.5,17.6-17.2,17.6
		c-10.2,0-17.6-7.3-17.6-17.5C150.3,532.3,159.1,526.2,167.9,526.2"/>
	<rect x="202.5" y="500.1" class="st0" width="10.7" height="70.4"/>
	<polygon class="st1" points="298.9,517.3 298.9,500.1 288.2,500.1 288.2,517.3 278,517.3 278,527.4 288.2,527.4 288.2,570.5 
		298.9,570.5 298.9,527.4 310.6,527.4 310.6,517.3 	"/>
	<path class="st1" d="M335.8,516.1c-13.3,0-27.6,10.7-27.6,28.1c0,14.8,12.7,27.4,27.6,27.4c15.3,0,27.8-12.4,27.8-27.7
		C363.6,528.8,350.9,516.1,335.8,516.1 M335.9,561.5c-9.4,0-17-7.8-17-17.4c0-12.3,9.9-17.9,17-17.9c6.9,0,17,5.5,17,17.4
		C352.9,554.8,344.3,561.5,335.9,561.5"/>
	<path class="st0" d="M414.7,551.6l-0.6,1.2c-1,2-5.2,8.7-15.2,8.7c-10,0-17.9-7.8-17.9-17.7c0-11,9.1-17.5,17.9-17.5
		c6.5,0,12.2,3.4,15.2,9.1l0.6,1.2h11.5l-1.2-3.1c-5.1-12.8-17.3-17.3-26.2-17.3c-15.7,0-28.4,12.5-28.4,27.8
		c0,15.5,12.5,27.7,28.4,27.7c11.8,0,20.6-5.6,26.1-16.7l1.6-3.3H414.7z"/>
	<path class="st0" d="M451.7,516.1c-4.1,0.3-8.2,1.1-11.5,3.9v-2.7h-10.7v53.1h10.7v-30.8c0-3.2,1-6.2,2.9-8.6
		c1.9-2.2,5-3.6,8.9-3.9l2.1-0.1v-11.1L451.7,516.1z"/>
	<path class="st0" d="M498.7,517.4v4.9c-6-5.4-13.5-6.2-16.8-6.2c-17.7,0-28.4,14.1-28.4,27.6c0,15.9,12.2,27.8,28.4,27.8
		c3.3,0,10.7-0.8,16.8-6.2v5.1h10.7v-53.1H498.7z M481.9,526.2c9.5,0,17.2,7.9,17.2,17.7c0,9.9-7.6,17.6-17.2,17.6
		c-10.2,0-17.7-7.3-17.7-17.5C464.2,532.3,473.1,526.2,481.9,526.2"/>
	<path class="st0" d="M558.4,500.1v22.2c-6.5-5.6-14.2-6.2-16.8-6.2c-17.8,0-28.4,14.1-28.4,27.6c0,15.6,12.5,27.8,28.4,27.8
		c2.6,0,10.5-0.6,16.8-6.2v5.1h10.7v-70.3H558.4z M541.6,526.2c9.5,0,17.2,7.9,17.2,17.7c0,9.9-7.6,17.6-17.2,17.6
		c-10.3,0-17.7-7.3-17.7-17.5C523.9,532.3,532.8,526.2,541.6,526.2"/>
	<rect x="576.2" y="500.1" class="st0" width="10.8" height="70.4"/>
	<path class="st0" d="M258.3,555.4c-2.6,3.2-6.9,6-13,6.1c-7.7,0-14.7-5.9-16.2-13.1h44v-2.3c0-0.2,0-0.5,0-0.8c0-0.3,0-0.6,0-1
		c0-5.3-1.4-10.3-4.2-14.8c-3.7-6.4-11.9-13.4-23.6-13.5c-15.2,0.3-27.6,12.8-27.6,27.8c0,15.3,12.4,27.7,27.6,27.7
		c10.8,0,20.5-6.4,25-16.2H258.3z M245.4,526.2c6.2,0,13.5,3.8,16.1,12.1h-32.2C231.7,530.1,239,526.2,245.4,526.2"/>
	<path class="st0" d="M632.7,554.5c-2.5,3.6-7,6.9-13.9,7c-7.6,0-14.6-5.9-16.2-13.1h44v-2.3c0-0.2,0-0.5,0-0.7c0-0.3,0-0.7,0-1
		c0-5.3-1.4-10.2-4.2-14.8c-3.7-6.4-11.9-13.4-23.6-13.5c-15.2,0.3-27.5,12.8-27.5,27.8c0,15.3,12.4,27.7,27.7,27.7
		c11.2,0,21.1-6.9,25.4-17.1L632.7,554.5z M619,526.2c6.2,0,13.5,3.8,16.1,12.1h-32.2C605.3,530.1,612.6,526.2,619,526.2"/>
	<path class="st2" d="M198.2,288.1c-5.3,2.8-9.3,3.9-14.9,3.9c-14.7,0-22.1-9.9-22.1-19.9c0-10.4,8.3-20.2,22.8-20.2
		c5.3,0,10,1.2,13.7,3.4v8.7c-4.2-2.4-8.4-4-13.1-4c-8.1,0-13.7,4.9-13.7,11.9c0,7,5.6,12,13.5,12c4.9,0,8.3-1.6,13.7-4.3V288.1z"/>
	<polygon class="st2" points="235.7,291.5 207.7,291.5 207.7,252.4 235.3,252.4 235.3,259.6 217.2,259.6 217.2,267.8 234.4,267.8 
		234.4,274.9 217.2,274.9 217.2,284.3 235.7,284.3 	"/>
	<path class="st2" d="M261.8,252.4c7.8,0,12.4,5.4,12.4,11.2c0,4.3-2.2,7.5-6.5,9.6c3.9,2,5.1,6.8,10.4,18.3h-10.4
		c-4-8.4-5.6-15.9-10.7-15.9h-2.7v15.9h-9.4v-39.1H261.8z M254.3,268.4h5c2.6,0,5.2-1.2,5.2-4.5c0-2.9-1.8-4.4-5.4-4.4h-4.8V268.4z"
		/>
	<polygon class="st2" points="315.9,259.6 302.1,259.6 302.1,291.5 292.7,291.5 292.7,259.6 278.9,259.6 278.9,252.4 315.9,252.4 	
		"/>
	<rect x="323.9" y="252.4" class="st2" width="9.4" height="39.1"/>
	<polygon class="st2" points="370.1,259.6 353.4,259.6 353.4,268.3 370.1,268.3 370.1,275.4 353.4,275.4 353.4,291.5 344,291.5 
		344,252.4 370.1,252.4 	"/>
	<rect x="379.8" y="252.4" class="st2" width="9.4" height="39.1"/>
	<polygon class="st2" points="428,291.5 400,291.5 400,252.4 427.6,252.4 427.6,259.6 409.5,259.6 409.5,267.8 426.8,267.8 
		426.8,274.9 409.5,274.9 409.5,284.3 428,284.3 	"/>
	<path class="st2" d="M453.8,252.4c13.8,0,21,8.9,21,19.6c0,11.2-6.9,19.5-22,19.5h-15.7v-39.1H453.8z M446.5,284.3h6.2
		c9.5,0,12.3-6.7,12.3-12.4c0-6.7-3.5-12.4-12.5-12.4h-6V284.3z"/>
	<path class="st1" d="M180.3,71.6C70.4,71.6-19,161.1-19,271c0,109.8,89.4,199.2,199.3,199.2c41.5,0,80-12.7,111.9-34.4
		c-27.9-28.6-48.6-64.1-59.4-103.3c-14.1,12.1-32.5,19.5-52.6,19.5c-44.6,0-81-36.4-81-81c0-44.7,36.4-81,81-81
		c30.4,0,56.8,16.8,70.7,41.6h124.5C357.1,140.5,276.7,71.6,180.3,71.6"/>
	<path class="st0" d="M460.7,71.6c-41.4,0-79.9,12.7-111.8,34.4c27.9,28.7,48.6,64.2,59.3,103.3c14.2-12.1,32.5-19.4,52.5-19.4
		c44.7,0,81,36.4,81,81c0,44.6-36.3,81-81,81c-30.5,0-57.1-17-70.9-42H265.4c18.2,91.2,98.7,160.3,195.2,160.3
		C570.6,470.2,660,380.8,660,271C660,161.1,570.6,71.6,460.7,71.6"/>
	<polygon class="st2" points="596,73.2 624.1,73.2 624.1,77.5 612.4,77.5 612.4,106.9 607.5,106.9 607.5,77.5 596,77.5 	"/>
	<polygon class="st2" points="655.4,73.2 659.9,73.2 659.9,106.9 655.1,106.9 655.1,80.7 644.7,93.7 643.9,93.7 633.4,80.7 
		633.4,106.9 628.6,106.9 628.6,73.2 633.1,73.2 644.3,87 	"/>
</g>
</svg>
